<?xml version="1.0" standalone="no"?>
<!DOCTYPE svg PUBLIC "-//W3C//DTD SVG 20010904//EN"
 "http://www.w3.org/TR/2001/REC-SVG-20010904/DTD/svg10.dtd">
<svg version="1.0" xmlns="http://www.w3.org/2000/svg"
 width="700.000000pt" height="700.000000pt" viewBox="0 0 700.000000 700.000000"
 preserveAspectRatio="xMidYMid meet">
<metadata>
Created by potrace 1.11, written by Peter Selinger 2001-2013
</metadata>
<g transform="translate(0.000000,700.000000) scale(0.100000,-0.100000)"
fill="#000000" stroke="none">
<path d="M3651 5774 c-88 -24 -166 -72 -234 -144 -104 -111 -164 -235 -202
-416 -30 -141 -37 -737 -20 -1664 10 -528 19 -680 48 -775 13 -44 27 -87 31
-96 5 -12 -8 -32 -50 -72 -81 -78 -154 -120 -218 -125 -48 -4 -56 -1 -90 28
-103 91 -196 425 -211 760 -8 165 -18 215 -45 230 -55 30 -110 -9 -110 -78 l0
-42 -62 40 c-197 128 -483 112 -681 -38 -97 -74 -190 -228 -223 -369 -34 -148
-204 -383 -398 -551 -87 -76 -96 -87 -96 -118 0 -24 8 -43 25 -59 l24 -25
2356 0 c1518 0 2363 3 2375 10 27 14 41 62 26 91 -20 40 -52 49 -184 49 l-124
0 54 42 c66 51 227 216 237 243 11 26 -6 73 -29 85 -41 22 -61 10 -189 -113
-183 -175 -280 -222 -461 -221 -270 3 -453 151 -491 396 -36 231 117 499 314
549 65 16 127 -7 168 -64 16 -22 29 -45 29 -52 0 -21 46 -55 73 -55 15 0 36 9
47 20 59 59 -33 220 -159 278 -72 33 -189 29 -271 -11 -131 -63 -231 -175
-300 -335 -37 -85 -38 -87 -101 -120 l-64 -34 -6 71 c-9 90 -33 158 -79 218
-122 163 -326 153 -400 -19 -45 -106 -5 -267 87 -348 42 -38 118 -76 166 -85
20 -4 37 -12 37 -17 0 -20 -61 -125 -113 -193 -64 -85 -153 -158 -227 -186
-85 -32 -194 -24 -278 21 -57 30 -172 137 -172 160 0 5 24 40 53 79 204 276
440 774 600 1266 149 459 213 806 205 1109 -4 147 -7 168 -34 247 -45 128 -98
215 -178 294 -82 80 -146 118 -237 140 -79 18 -148 18 -218 -1z m254 -166
c159 -82 273 -307 275 -539 2 -470 -266 -1361 -585 -1940 -65 -118 -197 -329
-206 -329 -31 0 -45 351 -55 1310 -9 948 2 1095 96 1287 50 102 117 173 202
214 57 28 70 30 143 26 61 -3 92 -10 130 -29z m-1610 -2262 c107 -28 193 -92
239 -176 l29 -52 -6 -182 c-8 -251 -33 -341 -113 -402 -117 -88 -421 -104
-574 -30 -92 44 -155 190 -154 356 1 141 47 264 135 364 94 107 295 162 444
122z m1921 -98 c47 -42 73 -100 81 -183 7 -75 -1 -83 -66 -65 -43 11 -104 58
-123 94 -31 59 -30 129 4 165 27 30 62 26 104 -11z m344 -381 c0 -64 35 -190
72 -260 18 -34 64 -92 101 -129 l68 -68 -342 0 -341 0 55 54 c92 90 198 257
228 355 10 33 17 40 53 51 22 7 52 18 66 26 37 20 40 18 40 -29z m-2898 -360
c16 -29 39 -62 51 -74 l20 -23 -193 0 -193 0 69 73 c38 39 91 102 119 139 l49
67 24 -65 c13 -36 37 -89 54 -117z m1112 -60 l28 -37 -134 0 -135 0 42 43 c23
24 54 73 70 110 l29 66 36 -72 c19 -40 48 -89 64 -110z m666 -9 l30 -28 -126
0 -126 0 49 39 c26 21 57 48 68 60 l20 23 27 -34 c15 -18 41 -45 58 -60z"/>
</g>
</svg>
