<svg id="card" xmlns="http://www.w3.org/2000/svg" xmlns:xlink="http://www.w3.org/1999/xlink" viewBox="0 0 64 56">
  <defs>
    <style>
      .cls-1, .cls-2, .cls-4, .cls-5, .cls-6 {
        fill: none;
        stroke-linecap: round;
      }

      .cls-1 {
        stroke: #6c00bd;
      }

      .cls-1, .cls-2 {
        stroke-miterlimit: 10;
      }

      .cls-2 {
        stroke: #8ff4ff;
      }

      .cls-2, .cls-4 {
        stroke-width: 0.5px;
      }

      .cls-3 {
        opacity: 0.3;
      }

      .cls-4 {
        stroke: #bb03ff;
      }

      .cls-4, .cls-5, .cls-6 {
        stroke-linejoin: round;
      }

      .cls-5 {
        stroke: #ff5402;
      }

      .cls-6 {
        stroke: #00ff30;
        stroke-width: 0.25px;
      }
    </style>
    <symbol id="seyes" data-name="seyes" viewBox="0 0 49 40.5">
      <line class="cls-1" x1="48.5" y1="24.25" x2="0.5" y2="24.25"/>
      <line class="cls-2" x1="48.5" y1="40.25" x2="0.5" y2="40.25"/>
      <line class="cls-2" x1="48.5" y1="32.25" x2="0.5" y2="32.25"/>
      <line class="cls-2" x1="48.5" y1="16.25" x2="0.5" y2="16.25"/>
      <line class="cls-2" x1="48.5" y1="8.25" x2="0.5" y2="8.25"/>
      <line class="cls-2" x1="48.5" y1="0.25" x2="0.5" y2="0.25"/>
    </symbol>
    <symbol id="tip" data-name="tip" viewBox="0 0 2 2">
      <circle class="cls-3" cx="1" cy="1" r="1"/>
      <circle cx="1" cy="1" r="0.5"/>
    </symbol>
  </defs>
  <use width="49" height="40.5" transform="translate(7.5 7.75)" xlink:href="#seyes"/>
  <g id="z">
    <g id="maj">
      <path class="cls-4" d="M-8,32S14.82,18.93,18.87,15.88"/>
      <path class="cls-5" d="M18.87,15.88c1.76-1.32,6.09-4.32,4.76-8.47"/>
      <path class="cls-5" d="M23.63,7.41c4.16,2,12.08,4.87,17.18.72"/>
      <path class="cls-5" d="M40.81,8.13C32.55,18.38,23.58,26.08,18.92,31.74"/>
      <path class="cls-5" d="M18.92,31.74c6.82-3.22,12.91-3.11,17.68-.06s5.49-7.65,1-7.48S34,27,34.72,28.08"/>
      <path class="cls-4" d="M34.72,28.08c3.93,5.71-17.68-.89-14.25-6.65"/>
      <path class="cls-5" d="M20.47,21.43c1.1-1.84,2.83-4.6,10-.17,2.68,1.66,6.27.79,9.61-1.14"/>
      <path class="cls-4" d="M40.06,20.12c4.85-2.79-2.91,10.12,0,11.34"/>
      <path class="cls-5" d="M40.09,31.46a4.16,4.16,0,0,0,4.71-1.55"/>
      <path class="cls-4" d="M44.8,29.91C46.36,27.91,72,32,72,32"/>
      <g>
        <g>
          <path class="cls-6" d="M18,13.93l.74,1"/>
          <path class="cls-6" d="M22.35,8.58a3.53,3.53,0,0,1-.07,1.12,5.69,5.69,0,0,1-1.45,2.54,15.74,15.74,0,0,1-2.21,1.95l-.3.23"/>
          <path class="cls-6" d="M21.74,9.15a2.72,2.72,0,0,0,.61-.57,3,3,0,0,1,.62.66"/>
        </g>
        <g>
          <path class="cls-6" d="M40.73,10.59l-.25.28-3.55,4.07-.74.85"/>
          <path class="cls-6" d="M37.05,15.74l-.86,0,0-.88"/>
        </g>
        <g>
          <path class="cls-6" d="M22,32.08l.35-.13a20.42,20.42,0,0,1,4.88-1c.38,0,.75-.05,1.13-.05"/>
          <path class="cls-6" d="M27.72,30.26l.65.6c-.21.21-.4.42-.59.63"/>
        </g>
        <g>
          <path class="cls-6" d="M32.93,27.85a5.16,5.16,0,0,1-.25-1.1,3.3,3.3,0,0,1,.39-2,3.38,3.38,0,0,1,1.46-1.39l.34-.16"/>
          <path class="cls-6" d="M33.32,26.91a4.5,4.5,0,0,0-.47.7,5.43,5.43,0,0,1-.75-.5"/>
          <path class="cls-6" d="M33.52,27.64l-1.17.42"/>
        </g>
        <g>
          <path class="cls-6" d="M19.68,20.81l.19-.32A5.07,5.07,0,0,1,23.08,18a5.25,5.25,0,0,1,1.12-.11"/>
          <path class="cls-6" d="M23.51,17.29a5,5,0,0,1,.69.59,4.67,4.67,0,0,0-.55.64"/>
          <path class="cls-6" d="M19.15,20.49l1.06.64"/>
        </g>
        <g>
          <path class="cls-6" d="M39.45,19.32c-.32.18-.65.36-1,.52a12.07,12.07,0,0,1-4.14,1.27l-.37,0"/>
          <path class="cls-6" d="M38.41,19.18l.83.26-.27.84"/>
          <path class="cls-6" d="M39.15,18.78l.61,1.08"/>
        </g>
      </g>
    </g>
  </g>
  <use width="2" height="2" transform="translate(-1 -1)" xlink:href="#tip"/>
</svg>
