<svg id="card" xmlns="http://www.w3.org/2000/svg" viewBox="0 0 64 56">
  <defs>
    <style>
      .cls-1, .cls-2 {
        fill: none;
        stroke-linecap: round;
        stroke-linejoin: round;
      }

      .cls-1 {
        stroke: #bb03ff;
        stroke-width: 0.5px;
      }

      .cls-2 {
        stroke: #ff5402;
      }
    </style>
  </defs>
  <g id="d">
    <g id="maj">
      <path class="cls-1" d="M-8,32S38.65-.85,31.06,6.85"/>
      <path class="cls-2" d="M31.06,6.85c-3.18,3.23.17,17.15-2.59,21.42-1.23,1.89-3.34,4.05-6.74,3.45C17.49,31,19.16,24,26.35,29.31c3,2.25,8.65,3.21,10.69,1.32,3.82-3.54,3.7-13.9,1.11-17.52C35.68,9.67,33,6,24.9,8.94c-4.07,1.48-5.32,5.24-4.45,7.28,1.13,2.62,5.08,3.16,5-1"/>
      <path class="cls-1" d="M25.44,15.26c-.09-4,9.36,11.93,12.44,14.48"/>
      <path class="cls-2" d="M37.88,29.74c2.31,1.92,3.77,1.3,5-.44"/>
      <path class="cls-1" d="M42.92,29.3C44.57,27,72,32,72,32"/>
    </g>
    <g id="min">
      <path class="cls-1" d="M-8,32s27.56,2.69,31.48-.81"/>
      <path class="cls-2" d="M23.48,31.19a22.33,22.33,0,0,0,2.7-3.53"/>
      <path class="cls-2" d="M32.29,25.87c-1.62-2.41-5.15-2.33-5.94.66s.66,4.91,2.78,5.07,3.58-.33,3.54-4.15,0-8.61,0-11.35"/>
      <path class="cls-1" d="M26.18,27.66c.67-1.06,6.86-.68,6.11-1.79"/>
      <path class="cls-2" d="M32.67,16.1c-.05,6.65,0,10.66.16,13,.3,4.28,4.34,2.36,6.16-.83"/>
      <path class="cls-1" d="M39,28.32C40.45,25.74,72,32,72,32"/>
    </g>
  </g>
</svg>
