<svg id="card" xmlns="http://www.w3.org/2000/svg" viewBox="0 0 128 88"><defs><style>.cls-1{fill:none;stroke:#ff5402;stroke-linecap:round;stroke-linejoin:round;}</style></defs><g id="t"><g id="maj"><path id="trace-2" class="cls-1" d="M100.9105,30.1825c1.862,1.7811,4.21,2.9145,6.4767-1.7811"/><path id="trace-1" class="cls-1" d="M95.0815,16.0148c-2.6717,4.3717-5.829,5.3432-9.31,4.7765s-6.5576-3.6431-6.3957-7.3672,4.6956-5.5052,7.3672-5.0195,7.853,5.1814,11.739,4.4528,2.9955-3.1574.81-4.1289-5.1-.5667-6.4767.7286-3.886,7.1244-4.0479,13.763,3.6431,9.715,9.796,8.0149,3.805-6.0719,2.51-6.6386-3.4-.4858-3.886.9715"/></g><g id="min"><path class="cls-1" d="M92.8164,52.3465A27.64,27.64,0,0,0,99.1046,52.3"/><path class="cls-1" d="M89.2969,63.2335c3.7542-4.4581,3.9419-8.8222,3.9419-15.1573.0469,7.6959.1407,10.6992.1407,13.4679s5.0212,3.4726,7.696-1.9709"/></g></g></svg>