<svg id="card" xmlns="http://www.w3.org/2000/svg" viewBox="0 0 128 88"><defs><style>.cls-1{fill:none;stroke:#ff5402;stroke-linecap:round;stroke-linejoin:round;}</style></defs><g id="f"><g id="maj"><path class="cls-1" d="M101.1271,7.8623c-2.66.9144-3.8242,1.4964-3.9489,4.5724s.3325,15.0475-.0832,16.5855a3.6683,3.6683,0,0,1-4.3646,2.66c-2.4109-.4572-3.7411-2.7435-4.4893-4.4062"/><path class="cls-1" d="M94.0606,17.215c-2.4109,1.9537-5.0713,1.6627-5.6532-1.33s2.3693-7.399,7.6484-7.5653,8.1473,1.3717,15.0475-.1247"/><path class="cls-1" d="M93.4371,20c2.7434-.3741,5.57-.6651,7.6068-.9976s1.8706-1.2055,1.1639-1.829-1.8705.54-1.0807,3.5333"/><path class="cls-1" d="M96.7209,30.0178c2.5772,1.4133,4.4062,2.3694,6.152.9561"/></g><g id="min"><path class="cls-1" d="M89.6544,63.646c2.8682-3.6164,13.4679-16.4192,9.7268-21.5736-3.21-4.4233-6.0688-.7482-6.0688,2.5356s.2078,26.8933.2078,30.5107c0,6.9833,5.9857,5.7779,5.9857,1.4133,0-7.65-2.9492-14.2577-6.817-14.2577-.8314,0-1.1224,1.33-.2079,1.3717,3.2106.146,5.3207.79,7.2328-2.3278"/></g></g><g id="g"><g id="maj-2" data-name="maj"><path class="cls-1" d="M87.9469,8.0581c-2.5712,4.971-2.2855,10.4562,5.7137,11.8275s11.1419-7.6565,8.1136-10.2277S94.1177,7.43,92.0036,12.7434s-3.6568,13.8844.3429,17.5984,9.142.5713,9.0277-5.6567c.1143,9.8849.0571,15.5986.0571,18.9126,0,5.5424-5.6566,5.4281-5.6566.3428,0-6.1708,6.4989-13.6209,10.7419-15.77"/></g><g id="min-2" data-name="min"><path class="cls-1" d="M86.4613,64.053c1.257-.5143,3.4282-3.0855,3.5425-4.4"/><path class="cls-1" d="M97.3746,57.8821c-2.3427-2.6855-5.3138-2.2855-6.5137-.6285s-1.1428,4.9138.2857,5.7709,3.19,1.4088,4.7995.2286c1.7142-1.2571,1.7713-3.9425,1.657-7.0851.1143,5.3709-.0571,17.1413-.0571,19.6553,0,5.2-5.5424,5.1424-5.5424.4S95.66,64.6244,100.86,62.6817"/></g></g><g id="h"><g id="maj-3" data-name="maj"><path class="cls-1" d="M82.3474,16.0859c1.257-2.2283,2.5712-5.6566,2.2283-7.7707,1.8284.8571,4.8,2.1141,8.2279,0-.8571,4.4567.1714,17.4841-1.0857,20.2267-2.24,4.8884-7.6381,3.8718-8.5135,1.1428-.9713-3.0283,1.3713-6.5137,11.4276-9.9991,11.4841-3.98,10.4561-11.199,6.7993-11.3132s-4.1139,1.7141-4.1139,12.056,1.2571,11.199,4.5139,11.2561,7.2565-5.4281,2.1141-7.1993"/><path class="cls-1" d="M94.8605,15.8c-.4571,1.7713,1.0285,6,.1143,7.4851"/><path class="cls-1" d="M104.1739,30.9417c1.8856,1.1428,3.4854.9142,4.8567-1.1427"/></g><g id="min-3" data-name="min"><path class="cls-1" d="M88.5754,62.4817c18.1126-25.0834,1.8855-26.17,1.8855-18.2269,0,7.5993-.1714,13.4273-.1714,19.6553,0-11.4846,7.1993-7.7707,7.1993-5.5423,0,3.7139-.8856,7.9135,4,3.0283"/></g></g><g id="i"><g id="maj-4" data-name="maj"><path class="cls-1" d="M88.69,16.0288c1.2571-2.3426,2.6284-4.971,1.8856-7.7136,2.6283,1.3142,5.3138,1.7141,7.8278.1714-1.4855,3.2569,1.4886,17.021-.6856,21.37-1.257,2.5141-9.8848,2.914-8.9706-1.4284"/><path class="cls-1" d="M97.6031,30.77c1.6,1.3713,3.7711,1.4856,4.8567-.4"/></g><g id="min-4" data-name="min"><path class="cls-1" d="M89.49,63.11c1.657-.9142,3.5425-2.8,3.5425-6.9708,0,5.9423-.8571,6.9708,2.057,7.4279s3.6568-.8571,3.8853-1.1427"/><path class="cls-1" d="M93.1464,52.3683c0,.3429.0046.5183.0046.5183"/></g></g><g id="j"><g id="maj-5" data-name="maj"><path class="cls-1" d="M88.9062,16.0511c.9976-1.6627,2.91-5.2375,2.2447-7.7316,2.7434,1.247,6.2351,1.58,7.9809,0-1.33,2.4941,1.3187,32.8718-.8313,37.0783-3.8242,7.4822-12.3872-4.8218,4.8218-16.7933"/></g><g id="min-5" data-name="min"><path class="cls-1" d="M90.5689,63.6876c1.1639-1.7459,3.7411-4.4062,3.9074-7.5653-.0832,5.2375,0,16.5439,0,20.1187,0,8.3967-13.6342,2.0784,4.4893-16.0451"/><path class="cls-1" d="M94.4763,52.3812c0,.3325.0027.3168.0027.5662"/></g></g></svg>