<svg id="card" xmlns="http://www.w3.org/2000/svg" viewBox="0 0 128 88"><defs><style>.cls-1{fill:none;stroke:#ff5402;stroke-linecap:round;stroke-linejoin:round;}</style></defs><g id="m"><g id="maj"><path class="cls-1" d="M75.9371,28.4382c-.3325,2.411,5.0713,4.7387,6.2351.9977S87.1049,9.4,87.3543,8.2364c.7205,4.5447,3.3809,21.2,4.046,22.28s2.5772,1.6627,2.9928.1663,4.1568-20.5067,4.6-22.7791c.3325,1.0808.1385,19.62,5.6255,22.6959s8.2554-2.119,6.9833-4.5724c-1.1639-2.2446-3.6579-2.7435-4.9881,0"/><path class="cls-1" d="M110.6876,30.6829c2.0784,1.4133,3.8243.8313,5.1544-1.1639"/></g><g id="min"><path class="cls-1" d="M84.1675,60.3622c.6651-1.9953,1.4133-4.1568,3.4917-4.1568s2.4109,1.33,2.4109,7.399c-.1663-6.152,1.33-6.9833,3.076-7.2327s2.66-.1663,2.66,7.399c.2494-7.399,1.7459-7.5653,3.658-7.4822s2.2446.7483,2.1615,5.487c-.0729,4.1561,4.24.9145,4.905.0831"/></g></g></svg>