<svg xmlns="http://www.w3.org/2000/svg" viewBox="0 0 96 96"><defs><style>.cls-1{fill:#faebd7;}.cls-2,.cls-3,.cls-4{fill:none;stroke-linecap:round;}.cls-2{stroke:#6c00bd;}.cls-2,.cls-3{stroke-miterlimit:10;}.cls-2,.cls-4{stroke-width:2px;}.cls-3{stroke:#8fc6bd;}.cls-4{stroke:#000;stroke-linejoin:round;}</style></defs><g id="icon"><rect class="cls-1" width="96" height="96"/><line class="cls-2" x1="80" y1="64" x2="16" y2="64"/><line class="cls-3" x1="80" y1="80" x2="16" y2="80"/><line class="cls-3" x1="80" y1="48" x2="16" y2="48"/><line class="cls-3" x1="80" y1="32" x2="16" y2="32"/><line class="cls-3" x1="80" y1="16" x2="16" y2="16"/><g id="min"><path class="cls-4" d="M36.1685,53.1631c-1.9953-5.57-9.3609-5.2082-11.9381-1.55a8.595,8.595,0,0,0-.2494,10.0594c1.7458,2.2447,8.5629,2.2447,10.7244-.0831s1.33-10.3919,1.2471-12.72c0,5.3206,1.4325,14.1781,4.981,14.1781,8.1487,0,19.7031-30.9263,16.96-39.7387s-12.886-7.4821-13.1354,4.4062.1285,21.9552.2494,27.2771c.1663,7.3159,7.4822,12.2208,12.6366,5.2375s.3325-11.8052-1.9121-9.7268.8313,8.5629,7.8978,3.741"/></g><path class="cls-4" d="M72.5667,50.848c-1.6627-4.4062-6.9-2.3278-8.5629,2.3278s.7154,10.3087,7.4821,10.3087c4.3231,0,6.2352-2.8266,8.23-4.7387"/><g id="min-2" data-name="min"><path class="cls-4" d="M15.8835,63.8875a23.7368,23.7368,0,0,0,6.6508-8.0641"/></g></g></svg>