<svg xmlns="http://www.w3.org/2000/svg" viewBox="0 0 144 48"><defs><style>.cls-1{fill:none;stroke:#ff5402;stroke-linecap:round;stroke-linejoin:round;}</style></defs><g id="title"><path class="cls-1" d="M6.6674,7.78C4.7553,12.9343,4.34,18.5875,11.9881,19.17s11.3064-3.99,9.9762-7.4822-6.5677-6.3183-8.6461.7482,1.6627,14.2993-.6651,17.2921-8.0641,1.4965-7.15-1.1639,5.3207-1.7458,10.3088,1.4965,9.3943.8313,8.7292-2.4941-4.323-4.905-6.6508-2.0784"/><path class="cls-1" d="M23.5439,30.6421c4.6278,2.4109,6.6092-3.6718,6.6092-3.6718,7.4406,1.538,6.9847-1.5366,5.6948-2.8681s-6.41-1.453-5.9026,3.741c.54,5.5285,7.0942,3.2007,9.2557.7205a9.6354,9.6354,0,0,0,2.7712-5.1543c.5542-1.9953-3.9387-.6578-.3326,1.1084,5.4315,2.66,5.8749,8.9232.3326,6.0412"/><path class="cls-1" d="M61.2041,8.0016c-1.9121,5.1544-2.3277,10.8076,5.3207,11.39s11.3064-3.9905,9.9762-7.4822-6.5677-6.3183-8.646.7482,1.6627,14.2993-.6651,17.2921-8.0641,1.4965-7.15-1.1639S65.3609,27.04,70.349,30.2819s9.3943.8313,8.7292-2.4941-4.323-4.905-6.6508-2.0784"/><path class="cls-1" d="M78.0806,30.8638c3.9074,1.8567,6.8309-3.8935,6.8309-3.8935,7.4406,1.538,6.9847-1.5366,5.6948-2.8681s-6.41-1.453-5.9026,3.741c.54,5.5285,7.8147,4.2261,9.1449.0555s1.34-8.0364,1.34-12.3692c0,6.716.1408,10.6993.1408,13.468s6.1675,3.39,7.2759-1.6531.7205-8.2581,1.0626-11.8149c.1567,7.9353.2281,10.3282.2122,12.4246s.9976,3.3808,2.5494,3.4362,4.2392-2.3962,4.5452-4.1013c1.94-10.8076-4.0459-2.8266,3.4363-3.9351,2.914-.4317,2.6049.2217,2.2169,3.8243s1.3579,4.2676,2.8682,4.0182,2.4525-1.829,3.3254-4.1152c7.4406,1.538,6.9847-1.5367,5.6948-2.8682s-6.346-1.5241-5.9026,3.7411,6.2628,3.3254,8.2581,1.8844c1.6883-1.2194,3.2145-4.1014,3.7688-6.0966s-3.9387-.6578-.3326,1.1085c5.4315,2.66,5.8749,8.9232.3326,6.0411"/><path class="cls-1" d="M94.7659,19.8a27.6333,27.6333,0,0,0,6.2882-.0469"/><path class="cls-1" d="M103.2453,19.8a27.6322,27.6322,0,0,0,6.2881-.0469"/></g></svg>